# xmcd CD database file
#
# Track frame offsets:
#	150
#	15401
#	28677
#	43844
#	56021
#	71714
#	83783
#	95948
#	109305
#	123918
#	138336
#	151057
#	164148
#	177725
#	189304
#	203345
#	216663
#	226926
#	238647
#	252882
#
# Disc length: 3532 seconds
#
# Revision: 0
# Processed by: cddbd v1.5.2PL0 Copyright (c) Steve Scherf et al.
# Submitted via: CDex 1.51
#
DISCID=1f0dca14
DTITLE=Muddy Waters - The Definitive Blues Collection - Muddy Waters
DYEAR=1948
DGENRE=Blues
TTITLE0=They Call Me Muddy Waters
TTITLE1=All Night Long
TTITLE2=Honey Bee
TTITLE3=Howling Wolf
TTITLE4=Lonesome Day
TTITLE5=Long Distance Call
TTITLE6=My Fault
TTITLE7=She Moves Me
TTITLE8=Still A Fool
TTITLE9=Too Young To Know
TTITLE10=Appealing Blues
TTITLE11=Louisiana Blues
TTITLE12=Rollin' And Tumblin' Part 1
TTITLE13=Rollin' And Tumblin' Part 2
TTITLE14=Rollin' Stone
TTITLE15=Walking Blue
TTITLE16=Mean Red Spider
TTITLE17=You're Gonna Miss Me
TTITLE18=I Feel Like Going Home
TTITLE19=I Can't Be Satisfied
EXTD=YEAR: 1948
EXTT0=
EXTT1=
EXTT2=
EXTT3=
EXTT4=
EXTT5=
EXTT6=
EXTT7=
EXTT8=
EXTT9=
EXTT10=
EXTT11=
EXTT12=
EXTT13=
EXTT14=
EXTT15=
EXTT16=
EXTT17=
EXTT18=
EXTT19=
PLAYORDER=
